/* XPM */
static char *xDbYmzV1724744313275[] = {
/* columns rows colors chars-per-pixel */
"48 25 229 2 ",
"   c None",
".  c #AD8B01",
"X  c #AE8B01",
"o  c #AD8B02",
"O  c #B28F00",
"+  c #B99500",
"@  c #BC9700",
"#  c #BF9A01",
"$  c #BD9805",
"%  c #C19B01",
"&  c #C29B01",
"*  c #C19C00",
"=  c #C39D00",
"-  c #C39D01",
";  c #C39D02",
":  c #C49E00",
">  c #C59F00",
",  c #C49E01",
"<  c #C59F01",
"1  c #C49D02",
"2  c #C49D03",
"3  c #C29D05",
"4  c #C39E04",
"5  c #C39E05",
"6  c #C7A000",
"7  c #C7A100",
"8  c #C8A100",
"9  c #C8A200",
"0  c #C9A200",
"q  c #C9A300",
"w  c #C8A201",
"e  c #C9A301",
"r  c #CAA300",
"t  c #CAA301",
"y  c #C9A302",
"u  c #CBA400",
"i  c #CBA500",
"p  c #CBA401",
"a  c #CBA402",
"s  c #CAA403",
"d  c #CCA500",
"f  c #CDA500",
"g  c #CCA501",
"h  c #CDA600",
"j  c #CDA601",
"k  c #CCA602",
"l  c #CDA603",
"z  c #CDA703",
"x  c #CEA702",
"c  c #CFA702",
"v  c #CEA603",
"b  c #CEA703",
"n  c #C9A204",
"m  c #CAA404",
"M  c #CBA404",
"N  c #CBA506",
"B  c #CEA704",
"V  c #CCA506",
"C  c #CDA606",
"Z  c #CFA803",
"A  c #CEA804",
"S  c #C9A409",
"D  c #C8A30C",
"F  c #CAA40D",
"G  c #CBA60D",
"H  c #CCA70C",
"J  c #CFA90D",
"K  c #CEA80F",
"L  c #D0A802",
"P  c #D0A803",
"I  c #D1A903",
"U  c #D0A904",
"Y  c #D1A904",
"T  c #D2A905",
"R  c #D1AA05",
"E  c #D2AA05",
"W  c #D0A906",
"Q  c #D0A907",
"!  c #D2AB06",
"~  c #D3AB06",
"^  c #D3AC06",
"/  c #D2AC07",
"(  c #D5AC04",
")  c #D4AC07",
"_  c #D5AD07",
"`  c #D6AD06",
"'  c #D7AD06",
"]  c #D7AE06",
"[  c #D2AB0B",
"{  c #D3AC0A",
"}  c #D4AD09",
"|  c #D5AD09",
" . c #D6AF08",
".. c #D6AE09",
"X. c #D1AB0D",
"o. c #D4AE0E",
"O. c #D6AF0F",
"+. c #DBB206",
"@. c #DCB207",
"#. c #D7B00B",
"$. c #D7B10F",
"%. c #D8B00B",
"&. c #D8B10B",
"*. c #DFB508",
"=. c #DDB50A",
"-. c #DEB70B",
";. c #D9B10C",
":. c #D9B20C",
">. c #D8B20D",
",. c #DAB20D",
"<. c #DAB30D",
"1. c #D8B00F",
"2. c #DBB30E",
"3. c #DCB40F",
"4. c #D3AD11",
"5. c #D7B112",
"6. c #DCB410",
"7. c #DDB511",
"8. c #DEB614",
"9. c #DFB812",
"0. c #DBB519",
"q. c #DBB718",
"w. c #DEB71B",
"e. c #DEBB1B",
"r. c #E0B607",
"t. c #E3B807",
"y. c #E4B907",
"u. c #E4BA07",
"i. c #E3B908",
"p. c #E6BC08",
"a. c #E7BC08",
"s. c #E4BB0C",
"d. c #E5BC0C",
"f. c #E6BD0C",
"g. c #E8BD08",
"h. c #E9BE08",
"j. c #E9BF0C",
"k. c #E0B813",
"l. c #E0B913",
"z. c #E0BA13",
"x. c #E1BB13",
"c. c #E4BC11",
"v. c #E2BA14",
"b. c #E3BB15",
"n. c #E3BD14",
"m. c #E4BC16",
"M. c #E4BC17",
"N. c #E5BD17",
"B. c #E0B919",
"V. c #E3BB19",
"C. c #E6BE19",
"Z. c #E7BF19",
"A. c #E5BD1A",
"S. c #E1BA1D",
"D. c #E3BC1E",
"F. c #E5BE1D",
"G. c #E4BC1F",
"H. c #EBC008",
"J. c #EBC009",
"K. c #EEC209",
"L. c #ECC10B",
"P. c #F0C408",
"I. c #F0C409",
"U. c #F1C509",
"Y. c #F2C609",
"T. c #F0C50A",
"R. c #F1C50A",
"E. c #F1C50C",
"W. c #F0C50D",
"Q. c #F1C60C",
"!. c #F0C50E",
"~. c #E8C012",
"^. c #E6C01A",
"/. c #E4C01D",
"(. c #E9C01B",
"). c #EAC11C",
"_. c #EAC21C",
"`. c #EAC21D",
"'. c #EBC21D",
"]. c #E8C01F",
"[. c #EBC31E",
"{. c #ECC41E",
"}. c #EDC41F",
"|. c #F0C612",
" X c #F1C713",
".X c #F0C716",
"XX c #F0C818",
"oX c #F0C91D",
"OX c #EBC320",
"+X c #EAC221",
"@X c #EAC322",
"#X c #EBC322",
"$X c #EBC323",
"%X c #EEC520",
"&X c #EEC620",
"*X c #EFC620",
"=X c #EEC621",
"-X c #ECC422",
";X c #EDC522",
":X c #EEC522",
">X c #EFC723",
",X c #EEC624",
"<X c #EFC724",
"1X c #F0C721",
"2X c #F0C724",
"3X c #F0C822",
"4X c #F1C823",
"5X c #F1C923",
"6X c #F2C923",
"7X c #F0C824",
"8X c #F1C924",
"9X c #F2C924",
"0X c #F3CA24",
"qX c #F3CB25",
"wX c #F2CA26",
"eX c #F3CA26",
"rX c #F3CB26",
"tX c #F4CB25",
"yX c #F4CB27",
"uX c #F4CC26",
"iX c #F5CC26",
"pX c #F4CC27",
"aX c #F5CC27",
"sX c #F6CD27",
"dX c #F6CD28",
"fX c #F7CE28",
"gX c #F8CE28",
"hX c #F8CF28",
"jX c #F8CF29",
/* pixels */
"  dX>X>XaX              dXjXjXjXdX                              dXdXdXdXdXdXdX                  ",
"dXV.{ | 8.aX          dXdX<X+X>XyXjXdX                      dXdXdXdXdXdXdXdXdXdXdXdX            ",
"4X| d.j.^ ).        dX0X5.N a N X.).dXdX                dXdXdXdXaXjXjXjXjXjXdXdXdXdXdX          ",
"1XR u.h.L ).      dX0Xo.r v -.^ r C +XjX              dXdXdXdXjXaX+XF.S.D.+XyXjXdXdXdXdX        ",
"aX7.v v #.4X      jXC.v ^ x.W.~.| v 2.aXdX          dXdXdXjXyXw.F 3 * * * 3 D q.0XjXdXdXdX      ",
"  0XC.M.4X        dX7.a s.W.I.I.K.Z R 0XdX        dXdXdXjX<XK , r v v v v v r , F +XjXdXdXdX    ",
"                dXdX2.r L K.I.I.+.r R 4XdX        dXdXjX2XH r v v v Z -.R v v v r S >XjXdXdX    ",
"                  dX9.a v H.I.I.] a ] yXdX      dXdXdXaX4.r v v v v x.W.n.v v v v r K 0XdXdXdX  ",
"                  jX{.v v ] n R L a x.dX        dXdXjXF.r v v a v q..XI.|.e.v a v v r V.jXdXdX  ",
"                  dXdXb.a * 7 * , 2.0XdX      dXdXdXdXo.a v A $./.oXI.I.I.XX^.2.Z v a [ yXdXdXdX",
"                    dXaX).2.| &.M.yXdX        dXdXdX0XR v N c.|.W.I.I.I.I.I.I.W.d.a a C >XjXdXdX",
"                      dXjXaXaXaXdXdX          dXdXjX>Xv v , R I.I.I.I.I.I.I.I.I.] & v v ).jXdXdX",
"                            dX                dXaXjX>Xv v v & @.I.I.I.I.K.I.I.*.# a v v ).jXdXdX",
"                                              dXaXgX{.Z v v r , h.I.I.I.I.K.H.* r v v v ).jXdXdX",
"                                              dXaXdX4XR a a v r t.I.I.I.I.I.p.7 v v v v >XjXdXdX",
"                                              dXdXdXaX#.a v v a u.I.I.I.I.I.p.a v v v ] 0XdXdXdX",
"                                                dXdXjXM.v v v r u.I.t.C *.I.h.a v v a x.dXdXdX  ",
"                                                dXdXdX0X| a v r ] 3 X O X $ ] r v a R 4XdXdXdX  ",
"                                                  dXdXdX{.R v 7 X + r v a @ X * v Z (.dXdXdX    ",
"                                                  dXdXdXdX).R a a v v v v v a a L C.dXdXdXdX    ",
"                                                    dXdXaXaX>X2.v v a a a a v 2.{.aXdXdXdX      ",
"                                                      dXdXaXdXaX{.b.3.2.3.b.{.aXdXdXdXdX        ",
"                                                        dXdXdXdXjXjXdXdXdXjXjXdXdXdXdX          ",
"                                                            dXdXdXdXdXdXdXdXdXdXdX              ",
"                                                                dXdXdXdXdXdXdX                  "
};
