/* XPM */
static char *GIznfue1725439856637[] = {
/* columns rows colors chars-per-pixel */
"48 48 39 1 ",
"  c None",
". c #000100",
"X c gray5",
"o c #0A1304",
"O c #0F1B08",
"+ c #151515",
"@ c #142709",
"# c #1D370D",
"$ c #253E16",
"% c gray15",
"& c #373E34",
"* c #2B5413",
"= c #336017",
"- c #346418",
"; c #396D1B",
": c #3C721B",
"> c #3F781D",
", c gray29",
"< c #5C5B5C",
"1 c #6A6A6A",
"2 c #43811F",
"3 c #478720",
"4 c #498B22",
"5 c #4B8E22",
"6 c #4B8E23",
"7 c #4B8F23",
"8 c #4C8F23",
"9 c #4C9024",
"0 c #807F80",
"q c gray56",
"w c gray64",
"e c #AEADAE",
"r c #C2C1C2",
"t c gray80",
"y c #D5D5D5",
"u c #DDDCDD",
"i c #ECEBEC",
"p c #F6F6F6",
"a c white",
/* pixels */
"                   6666666666                   ",
"               666666666666666666               ",
"             6666666666666666666666             ",
"           66666666666666666666666666           ",
"          6666666666666666666666666666          ",
"         666666666666666666666666666666         ",
"        66666666666666666666666666666666        ",
"       6666666666666666666666666666666666       ",
"      666666666666666666666666666666666666      ",
"     66666666666666666666666666666666666666     ",
"    6666666666666666666666666666666666666666    ",
"   66666666688666666666666666666668866666666    ",
"   666666683222686666666666666686222386666666   ",
"  66666662*#&&&$:66666666666666:#$&&$*26666666  ",
"  6666682@%eiiu0O-866666666668-O<tiir,@2866666  ",
" 6666663#Xeaaaap<o:8666666668:o&iaaaat%#366666  ",
" 666668=.&iaaaaae.#4666666664#.qaaaaaa<.=866666 ",
" 666666#.,paaaaar.o>86666668>o.waaaaaa1.#666666 ",
" 666664@.%uaaaaaw..;96666669;..1aaaaap,.@466666 ",
"6666664@.%taaaau&..;96666669;..1paaaawX.@4666666",
"6666666#.qaaytw&..o>86666668>o%yaitr0+..#6666666",
"6666668-.<ir%+X...#4666666664#Xwi0++....-8666666",
"66666663#.%+.....o:8666666668:oX%X.....#36666666",
"666666662#......O;666666666666;O......#266666666",
"6666666683*@ooO$>86666666666668>$Ooo@*3866666666",
" 6666666668322368666666666666668632238666666666 ",
"  66666666666666666666666666666666666666666666  ",
"   666666666666666666666666666666666666666666   ",
"    6666666666666666666666666666666666666666    ",
"     66666666666666666666666666666666666666     ",
"      666666666666666666666666666666666666      ",
"       6666666666666666666666666666666666       ",
"       6666666666666666666666666666666666       ",
"      666666666666666666666666666666666666      ",
"     66666666666666666666666666666666666666     ",
"     66666666666666666666666666666666666666     ",
"    6666666666666666666666666666666666666666    ",
"   666666666666666666666666666666666666666666   ",
"   666666666666666666666666666666666666666666   ",
"  66666666666666666666666666666666666666666666  ",
" 6666666666666666666666666666666666666666666666 ",
"666666666666666666666666666666666666666666666666",
"666666666666666666666666666666666666666666666666",
"666666666666666666666666666666666666666666666666",
"66666666666  6666666666  6666666666  66666666666",
" 6666666666  6666666666  6666666666  6666666666 ",
"  66666666    66666666    66666666    66666666  ",
"   666666      666666      666666      666666   "
};
