/* XPM */
static char *CmVSfwv1724744380027[] = {
/* columns rows colors chars-per-pixel */
"48 48 98 2 ",
"   c None",
".  c black",
"X  c #020200",
"o  c #040400",
"O  c #0A0A00",
"+  c #141400",
"@  c #161600",
"#  c #1E1E00",
"$  c #1F1F00",
"%  c #101012",
"&  c gray7",
"*  c #181818",
"=  c gray10",
"-  c #1D1D1F",
";  c #212100",
":  c #272700",
">  c #373700",
",  c #3A3A00",
"<  c #3B3B00",
"1  c #323232",
"2  c #343434",
"3  c gray24",
"4  c #434300",
"5  c #474700",
"6  c #5F5F00",
"7  c #6C6C00",
"8  c #747400",
"9  c #797900",
"0  c #7D7D00",
"q  c #7E7E00",
"w  c #7F7F00",
"e  c #69691F",
"r  c #78781B",
"t  c #404041",
"y  c #414141",
"u  c #434343",
"i  c #4A4A4E",
"p  c #525250",
"a  c #838300",
"s  c #878700",
"d  c #888801",
"f  c #898901",
"g  c #8D8D00",
"h  c #A8A801",
"j  c #B7B701",
"k  c #BCBC01",
"l  c #96963B",
"z  c #A4A43B",
"x  c #C0C001",
"c  c #C3C301",
"v  c #CFCF01",
"b  c #D0D001",
"n  c #D4D401",
"m  c #D6D600",
"M  c #D7D701",
"N  c #D8D801",
"B  c #DADA01",
"V  c #DCDC01",
"C  c #E5E501",
"Z  c #E7E700",
"A  c #E6E601",
"S  c #E7E701",
"D  c #E8E801",
"F  c #EAEA01",
"G  c #EBEB01",
"H  c #EDED01",
"J  c #EFEF01",
"K  c #F0F001",
"L  c #F2F201",
"P  c #F4F401",
"I  c #F6F601",
"U  c #F8F801",
"Y  c #F9F901",
"T  c #FAFA00",
"R  c #FBFB00",
"E  c #FAFA01",
"W  c #FCFC00",
"Q  c #FCFC01",
"!  c #FDFD01",
"~  c yellow",
"^  c #FEFE01",
"/  c #FFFF01",
"(  c #C4C420",
")  c #939349",
"_  c gray",
"`  c #C5C5C5",
"'  c #C7C7CA",
"]  c gray79",
"[  c #CACACD",
"{  c gray81",
"}  c #D6D6D0",
"|  c #EBEBEE",
" . c gray93",
".. c #ECECEE",
"X. c #EEEEEE",
"o. c gray94",
"O. c gray98",
"+. c white",
/* pixels */
"                                      / / / / / / / / / /                                       ",
"                                / / / / / / / / / / / / / / / /                                 ",
"                          / / / / / / / / / / / / / / / / / / / / / /                           ",
"                      / / / / / / / / / / / / / / / / / / / / / / / / / /                       ",
"                    / / / / / / / / / / / / / / / / / / / / / / / / / / / /                     ",
"                  / / / / / / U U / / / / / / / / / / / / / / / / / / / / / /                   ",
"                / / / P c 9 r l z ( F / / / / / / / / / / / / / / / / / / / / /                 ",
"              / / / J q + y ' |  .} ) m / / / / / / / / / / / / / / / / / / / / /               ",
"            / / / P g O & _ +.+.+.+.[ e S / / / / / / / / / / / / / / / / / / / / /             ",
"          / / / / c : . 2  .+.+.+.+.O.p s / / / / / / / / / / / / / / / / / / / / / /           ",
"        / / / / L f . . 1  .+.+.+.+.O.i , J / / / / / / / / / / / / / / / / / / / / / /         ",
"        / / / / S 7 . . & _ +.+.+.+.{ - $ B / / / / / / / / / / / / / / / / / / / / / /         ",
"      / / / / / S 7 . . . 3 ` o.o.] y . $ m / / / / / / / / / / / / / / / / / / / / / / /       ",
"    / / / / / / F f . . . . * y y * . . > F / / / / / / / / / / / / / / / / / / / / / / / /     ",
"    / / / / / / J j ; . . . . . . . . . 8 U / / / / / / / / / / / / / / / / / / / / / / / /     ",
"  / / / / / / / U V q O . . . . . . . > b / / / / / / / / / / / / / / / / / / / / / / / / /     ",
"  / / / / / / / / J m q + . . . . o 4 k U / / / / / / / / / / / / / / / / / / / / / / / / / /   ",
"  / / / / / / / / / J B h 6 , , 5 a v P / / / / / / / / / / / / / / / / / / / / / / / / / / /   ",
"  / / / / / / / / / / P S V B B V F U / / / / / / / / / / / / / / / / / / / / / / / / / / / /   ",
"/ / / / / / / / / / / / / U U U U / / / / / / / / / / / / / / / / / / / / / / / / / / / / / / / ",
"/ / / / / / / / / / / / / / / / / / / / / / / / / / / / / / / / / / / / / / / / / / / / / / / / ",
"/ / / / / / / / / / / / / / / / / / / / / / / / / / / / / / / / / / / / / / / / / / / / / / / / ",
"/ / / / / / / / / / / / / / / / / / / / / / / / / / / / / / / / / / / / / / / / / / / / / / / / ",
"/ / / / / / / / / / / / / / / / / / / / / / / / U L L L L L L L L L L L L L L L L L L L L L L L ",
"/ / / / / / / / / / / / / / / / / / / / / / / / U L L L L L L L L L L L L L L L L L L L L L L L ",
"/ / / / / / / / / / / / / / / / / / / / / / / / / / / / / / / / / / / / / / / / / / / / / / / / ",
"/ / / / / / / / / / / / / / / / / / / / / / / / / / / / / / / / / / / / / / / / / / / / / / / / ",
"/ / / / / / / / / / / / / / / / / / / / / / / / / / / / / / / / / / / / / / / / / / / / / / / / ",
"/ / / / / / / / / / / / / / / / / / / / / / / / / / / / / / / / / / / / / / / / / / / / / / / / ",
"  / / / / / / / / / / / / / / / / / / / / / / / / / / / / / / / / / / / / / / / / / / / / / / / ",
"  / / / / / / / / / / / / / / / / / / / / / / / / / / / / / / / / / / / / / / / / / / / / / /   ",
"  / / / / / / / / / / / / / / / / / / / / / / / / / / / / / / / / / / / / / / / / / / / / / /   ",
"  / / / / / / / / / / / / / / / / / / / / / / / / / / / / / / / / / / / / / / / / / / / / / /   ",
"    / / / / / / / / / / / / / / / / / / / / / / / / / / / / / / / / / / / / / / / / / / / /     ",
"    / / / / / / / / / / / / / / / / / / / / / / / / / / / / / / / / / / / / / / / / / / / /     ",
"      / / / / / / / / / / / / / / / / / / / / / / / / / / / / / / / / / / / / / / / / / /       ",
"      / / / / / / / / / / / / / / / / / / / / / / / / / / / / / / / / / / / / / / / / / /       ",
"        / / / / / / / / / / / / / / / / / / / / / / / / / / / / / / / / / / / / / / / /         ",
"          / / / / / / / / / / / / / / / / / / / / / / / / / / / / / / / / / / / / / /           ",
"            / / / / / / / / / / / / / / / / / / / / / / / / / / / / / / / / / / / /             ",
"              / / / / / / / / / / / / / / / / / / / / / / / / / / / / / / / / / /               ",
"                / / / / / / / / / / / / / / / / / / / / / / / / / / / / / / / /                 ",
"                  / / / / / / / / / / / / / / / / / / / / / / / / / / / / / /                   ",
"                    / / / / / / / / / / / / / / / / / / / / / / / / / / / /                     ",
"                      / / / / / / / / / / / / / / / / / / / / / / / / / /                       ",
"                          / / / / / / / / / / / / / / / / / / / / / /                           ",
"                              / / / / / / / / / / / / / / / / / /                               ",
"                                    / / / / / / / / / / / /                                     "
};
